<svg width="125" height="140" viewBox="0 0 125 140" fill="none" xmlns="http://www.w3.org/2000/svg">
<path d="M124.706 5.03441V131.6H114.097V10.0184H53.3687V131.6H45.817V5.03441C45.817 2.26645 48.0322 8.2726e-10 50.8515 8.2726e-10H119.672C122.441 -4.99992e-05 124.706 2.26645 124.706 5.03441Z" fill="#16054E"/>
<path d="M5.43816 6.14423L53.381 10.0013V131.6L5.90376 139.923C2.82266 140.463 0 138.092 0 134.964V11.1624C5.00001e-05 8.22283 2.508 5.90848 5.43816 6.14423Z" fill="#8D6CFA"/>
<path d="M8.68363 80.6264C7.66628 80.6264 6.84152 79.8016 6.84152 78.7843V67.3437C6.84152 66.3263 7.66628 65.5016 8.68363 65.5016C9.70098 65.5016 10.5257 66.3263 10.5257 67.3437V78.7843C10.5258 79.8016 9.70103 80.6264 8.68363 80.6264Z" fill="#4C2CEC"/>
</svg>
