<svg width="234" height="266" viewBox="0 0 234 266" fill="none" xmlns="http://www.w3.org/2000/svg">
<rect y="0.833008" width="234" height="264.333" rx="26" fill="#F8F8FD"/>
<path d="M114.834 156.833C106.298 156.833 97.8457 155.151 89.9595 151.885C82.0734 148.618 74.9078 143.831 68.872 137.795C62.8362 131.759 58.0484 124.593 54.7818 116.707C51.5152 108.821 49.834 100.369 49.834 91.8328C49.834 83.2968 51.5152 74.8445 54.7818 66.9583C58.0484 59.0722 62.8362 51.9066 68.872 45.8708C74.9078 39.835 82.0734 35.0471 89.9595 31.7806C97.8457 28.514 106.298 26.8328 114.834 26.8328V46.3328C108.859 46.3328 102.942 47.5097 97.4219 49.7962C91.9016 52.0828 86.8857 55.4343 82.6606 59.6594C78.4355 63.8845 75.084 68.9004 72.7975 74.4207C70.5109 79.941 69.334 85.8576 69.334 91.8328C69.334 97.8079 70.5109 103.725 72.7974 109.245C75.084 114.765 78.4355 119.781 82.6606 124.006C86.8857 128.231 91.9016 131.583 97.4219 133.869C102.942 136.156 108.859 137.333 114.834 137.333L114.834 156.833Z" fill="#8D6CFA"/>
<path d="M114.834 156.833C105.061 156.833 95.414 154.629 86.6105 150.386C77.807 146.142 70.0736 139.968 63.9858 132.323L79.2403 120.176C83.5017 125.528 88.9151 129.849 95.0775 132.82C101.24 135.79 107.993 137.333 114.834 137.333L114.834 156.833Z" fill="#4ECC4E"/>
<path d="M106.232 27.4045C114.693 26.2748 123.293 26.8227 131.542 29.0169C139.791 31.2111 147.528 35.0085 154.309 40.1925C161.091 45.3764 166.785 51.8453 171.066 59.2298C175.348 66.6143 178.133 74.7698 179.262 83.2307C180.392 91.6915 179.844 100.292 177.65 108.541C175.456 116.79 171.658 124.526 166.474 131.308C161.29 138.089 154.821 143.783 147.437 148.065C140.052 152.346 131.897 155.131 123.436 156.261L120.855 136.933C126.778 136.142 132.487 134.192 137.656 131.195C142.825 128.198 147.353 124.212 150.982 119.465C154.611 114.718 157.269 109.303 158.805 103.529C160.341 97.7542 160.725 91.7339 159.934 85.8113C159.143 79.8887 157.193 74.1799 154.196 69.0107C151.199 63.8415 147.214 59.3133 142.467 55.6846C137.719 52.0558 132.304 49.3976 126.53 47.8617C120.755 46.3257 114.735 45.9422 108.812 46.733L106.232 27.4045Z" fill="#EFEBFE"/>
<path d="M52.6594 72.8769C48.6781 85.9353 48.9095 99.9158 53.3206 112.835C57.7317 125.755 66.0987 136.958 77.2347 144.854C88.3707 152.751 101.71 156.941 115.362 156.831C129.013 156.72 142.283 152.313 153.289 144.237C164.296 136.16 172.48 124.823 176.68 111.833C180.881 98.844 180.885 84.8616 176.692 71.8696C172.5 58.8776 164.323 47.5355 153.321 39.4521C142.32 31.3687 129.053 26.9544 115.401 26.8352L115.231 46.3345C124.787 46.4179 134.074 49.5079 141.775 55.1663C149.476 60.8247 155.2 68.7641 158.135 77.8586C161.07 86.953 161.067 96.7406 158.126 105.833C155.186 114.926 149.457 122.862 141.753 128.516C134.048 134.169 124.759 137.254 115.203 137.331C105.648 137.409 96.3097 134.476 88.5145 128.948C80.7193 123.42 74.8624 115.578 71.7746 106.535C68.6868 97.4909 68.5249 87.7046 71.3118 78.5637L52.6594 72.8769Z" fill="#F5A623"/>
<path d="M63.8652 132.171C70.6797 140.782 79.5645 147.525 89.6905 151.773C99.8164 156.02 110.853 157.633 121.771 156.461C132.689 155.29 143.133 151.371 152.126 145.071C161.12 138.771 168.371 130.295 173.203 120.435C178.035 110.574 180.29 99.6501 179.758 88.6823C179.225 77.7144 175.923 67.0602 170.159 57.7138C164.395 48.3675 156.358 40.6336 146.796 35.2341C137.235 29.8346 126.461 26.9453 115.481 26.836L115.287 46.335C122.973 46.4115 130.515 48.434 137.208 52.2137C143.901 55.9934 149.527 61.4071 153.562 67.9495C157.596 74.492 159.908 81.9499 160.28 89.6274C160.653 97.3049 159.075 104.952 155.692 111.854C152.31 118.756 147.234 124.689 140.939 129.099C134.643 133.509 127.333 136.252 119.69 137.073C112.048 137.893 104.322 136.764 97.2335 133.791C90.1454 130.817 83.926 126.097 79.1558 120.07L63.8652 132.171Z" fill="#4ECC4E"/>
<rect x="26" y="178.5" width="8.66667" height="8.66667" rx="4.33333" fill="#4ECC4E"/>
<path d="M44.5553 187.167V177.937H49.9243V179.081H45.7643V181.876H49.0533V183.02H45.7643V187.167H44.5553ZM52.4109 178.704C52.2635 178.851 52.0772 178.925 51.8519 178.925C51.6265 178.925 51.4359 178.851 51.2799 178.704C51.1239 178.548 51.0459 178.357 51.0459 178.132C51.0459 177.915 51.1239 177.729 51.2799 177.573C51.4359 177.417 51.6265 177.339 51.8519 177.339C52.0772 177.339 52.2635 177.417 52.4109 177.573C52.5582 177.729 52.6319 177.915 52.6319 178.132C52.6319 178.357 52.5582 178.548 52.4109 178.704ZM51.2799 187.167V180.667H52.3979V187.167H51.2799ZM54.5172 187.167V180.667H55.6352V181.668C56.0772 180.914 56.7662 180.537 57.7022 180.537C58.4389 180.537 59.0325 180.775 59.4832 181.252C59.9339 181.728 60.1592 182.365 60.1592 183.163V187.167H59.0542V183.332C59.0542 182.786 58.9155 182.357 58.6382 182.045C58.3609 181.724 57.9882 181.564 57.5202 181.564C56.9829 181.564 56.5322 181.776 56.1682 182.201C55.8129 182.625 55.6352 183.206 55.6352 183.943V187.167H54.5172ZM64.6183 187.232C64.0203 187.232 63.5393 187.063 63.1753 186.725C62.8113 186.387 62.6293 185.893 62.6293 185.243V181.694H61.2513V180.667H62.6293V178.86H63.7473V180.667H65.6193V181.694H63.7473V185.1C63.7473 185.507 63.834 185.793 64.0073 185.958C64.1806 186.122 64.4536 186.205 64.8263 186.205C65.1556 186.205 65.42 186.161 65.6193 186.075V187.076C65.3073 187.18 64.9736 187.232 64.6183 187.232ZM69.7276 187.297C68.7829 187.297 67.9986 186.976 67.3746 186.335C66.7593 185.693 66.4516 184.887 66.4516 183.917C66.4516 182.937 66.7506 182.131 67.3486 181.499C67.9553 180.857 68.7569 180.537 69.7536 180.537C70.7589 180.537 71.5476 180.892 72.1196 181.603C72.6916 182.313 72.9429 183.184 72.8736 184.216H67.5826C67.5999 184.805 67.8166 185.299 68.2326 185.698C68.6486 186.088 69.1513 186.283 69.7406 186.283C70.6246 186.283 71.2529 185.919 71.6256 185.191H72.7696C72.6049 185.797 72.2539 186.3 71.7166 186.699C71.1793 187.097 70.5163 187.297 69.7276 187.297ZM71.0016 181.993C70.6463 181.681 70.2173 181.525 69.7146 181.525C69.2119 181.525 68.7613 181.676 68.3626 181.98C67.9726 182.283 67.7299 182.734 67.6346 183.332H71.6906C71.5866 182.742 71.3569 182.296 71.0016 181.993ZM77.3729 187.297C76.3936 187.297 75.5832 186.972 74.9419 186.322C74.3006 185.663 73.9799 184.861 73.9799 183.917C73.9799 182.972 74.3006 182.175 74.9419 181.525C75.5832 180.866 76.3936 180.537 77.3729 180.537C78.1789 180.537 78.8766 180.762 79.4659 181.213C80.0552 181.655 80.4496 182.235 80.6489 182.955H79.4529C79.2969 182.53 79.0369 182.192 78.6729 181.941C78.3089 181.689 77.8756 181.564 77.3729 181.564C76.7056 181.564 76.1596 181.789 75.7349 182.24C75.3189 182.69 75.1109 183.249 75.1109 183.917C75.1109 184.584 75.3189 185.143 75.7349 185.594C76.1596 186.044 76.7056 186.27 77.3729 186.27C77.8756 186.27 78.3089 186.144 78.6729 185.893C79.0369 185.641 79.2969 185.303 79.4529 184.879H80.6489C80.4582 185.598 80.0682 186.183 79.4789 186.634C78.8896 187.076 78.1876 187.297 77.3729 187.297ZM83.2475 187.167H82.1295V177.417H83.2475V181.668C83.6895 180.914 84.3785 180.537 85.3145 180.537C86.0512 180.537 86.6448 180.775 87.0955 181.252C87.5462 181.728 87.7715 182.365 87.7715 183.163V187.167H86.6665V183.332C86.6665 182.786 86.5278 182.357 86.2505 182.045C85.9732 181.724 85.6005 181.564 85.1325 181.564C84.5952 181.564 84.1445 181.776 83.7805 182.201C83.4252 182.625 83.2475 183.206 83.2475 183.943V187.167ZM185.492 186.413C184.903 187.002 184.162 187.297 183.269 187.297C182.377 187.297 181.631 187.002 181.033 186.413C180.435 185.823 180.136 185.104 180.136 184.255C180.136 183.804 180.223 183.401 180.396 183.046C180.578 182.682 180.838 182.3 181.176 181.902L184.543 177.937H185.96L183.139 181.278C183.295 181.26 183.417 181.252 183.503 181.252C184.275 181.252 184.946 181.546 185.518 182.136C186.099 182.725 186.389 183.423 186.389 184.229C186.389 185.087 186.09 185.815 185.492 186.413ZM183.269 186.218C183.824 186.218 184.292 186.023 184.673 185.633C185.055 185.243 185.245 184.775 185.245 184.229C185.245 183.683 185.055 183.215 184.673 182.825C184.292 182.435 183.824 182.24 183.269 182.24C182.706 182.24 182.234 182.435 181.852 182.825C181.471 183.206 181.28 183.674 181.28 184.229C181.28 184.783 181.471 185.256 181.852 185.646C182.234 186.027 182.706 186.218 183.269 186.218ZM190.973 187.297C190.011 187.297 189.227 186.976 188.62 186.335C188.013 185.685 187.71 184.848 187.71 183.826V181.252C187.71 180.229 188.013 179.397 188.62 178.756C189.235 178.106 190.02 177.781 190.973 177.781C191.926 177.781 192.711 178.106 193.326 178.756C193.941 179.406 194.249 180.238 194.249 181.252V183.826C194.249 184.848 193.941 185.685 193.326 186.335C192.711 186.976 191.926 187.297 190.973 187.297ZM190.973 186.205C191.614 186.205 192.134 185.992 192.533 185.568C192.932 185.143 193.131 184.562 193.131 183.826V181.252C193.131 180.515 192.932 179.934 192.533 179.51C192.134 179.085 191.614 178.873 190.973 178.873C190.34 178.873 189.825 179.085 189.426 179.51C189.027 179.934 188.828 180.515 188.828 181.252V183.826C188.828 184.562 189.027 185.143 189.426 185.568C189.825 185.992 190.34 186.205 190.973 186.205ZM199.151 187.167H197.942L203.792 177.937H205.001L199.151 187.167ZM204.936 187.271C204.225 187.271 203.618 187.019 203.116 186.517C202.622 186.014 202.375 185.412 202.375 184.71C202.375 183.999 202.622 183.397 203.116 182.903C203.618 182.4 204.225 182.149 204.936 182.149C205.638 182.149 206.24 182.4 206.743 182.903C207.245 183.397 207.497 183.999 207.497 184.71C207.497 185.412 207.245 186.014 206.743 186.517C206.24 187.019 205.638 187.271 204.936 187.271ZM204.936 186.257C205.352 186.257 205.711 186.105 206.015 185.802C206.318 185.49 206.47 185.126 206.47 184.71C206.47 184.294 206.318 183.934 206.015 183.631C205.711 183.319 205.352 183.163 204.936 183.163C204.502 183.163 204.138 183.314 203.844 183.618C203.549 183.921 203.402 184.285 203.402 184.71C203.402 185.134 203.549 185.498 203.844 185.802C204.138 186.105 204.502 186.257 204.936 186.257ZM198.007 182.955C197.296 182.955 196.689 182.703 196.187 182.201C195.693 181.698 195.446 181.096 195.446 180.394C195.446 179.683 195.693 179.081 196.187 178.587C196.689 178.084 197.296 177.833 198.007 177.833C198.709 177.833 199.311 178.084 199.814 178.587C200.316 179.081 200.568 179.683 200.568 180.394C200.568 181.096 200.316 181.698 199.814 182.201C199.311 182.703 198.709 182.955 198.007 182.955ZM198.007 181.941C198.423 181.941 198.782 181.789 199.086 181.486C199.389 181.174 199.541 180.81 199.541 180.394C199.541 179.978 199.389 179.618 199.086 179.315C198.782 179.003 198.423 178.847 198.007 178.847C197.573 178.847 197.209 178.998 196.915 179.302C196.62 179.605 196.473 179.969 196.473 180.394C196.473 180.818 196.62 181.182 196.915 181.486C197.209 181.789 197.573 181.941 198.007 181.941Z" fill="#16054E"/>
<rect x="26" y="204.5" width="8.66667" height="8.66667" rx="4.33333" fill="#8D6CFA"/>
<path d="M44.5553 213.167V203.937H49.9373V205.081H45.7643V207.876H49.1573V209.02H45.7643V212.023H49.9373V213.167H44.5553ZM54.0975 213.297C53.1962 213.297 52.4379 212.967 51.8225 212.309C51.2159 211.65 50.9125 210.853 50.9125 209.917C50.9125 208.981 51.2159 208.183 51.8225 207.525C52.4379 206.866 53.1962 206.537 54.0975 206.537C54.5742 206.537 55.0162 206.645 55.4235 206.862C55.8395 207.07 56.1602 207.338 56.3855 207.668V203.417H57.5035V213.167H56.3855V212.166C56.1602 212.495 55.8395 212.768 55.4235 212.985C55.0162 213.193 54.5742 213.297 54.0975 213.297ZM54.2665 212.27C54.9079 212.27 55.4365 212.044 55.8525 211.594C56.2685 211.143 56.4765 210.584 56.4765 209.917C56.4765 209.249 56.2685 208.69 55.8525 208.24C55.4365 207.789 54.9079 207.564 54.2665 207.564C53.6165 207.564 53.0835 207.789 52.6675 208.24C52.2515 208.69 52.0435 209.249 52.0435 209.917C52.0435 210.584 52.2515 211.143 52.6675 211.594C53.0835 212.044 53.6165 212.27 54.2665 212.27ZM61.909 213.297C61.1983 213.297 60.622 213.058 60.18 212.582C59.738 212.096 59.517 211.455 59.517 210.658V206.667H60.635V210.489C60.635 211.035 60.765 211.468 61.025 211.789C61.2937 212.109 61.6533 212.27 62.104 212.27C62.624 212.27 63.053 212.057 63.391 211.633C63.7377 211.199 63.911 210.619 63.911 209.891V206.667H65.029V213.167H63.911V212.166C63.4863 212.92 62.819 213.297 61.909 213.297ZM68.0094 213.167V205.081H65.1364V203.937H72.0654V205.081H69.1924V213.167H68.0094ZM74.9835 213.297C74.0388 213.297 73.2545 212.976 72.6305 212.335C72.0151 211.693 71.7075 210.887 71.7075 209.917C71.7075 208.937 72.0065 208.131 72.6045 207.499C73.2111 206.857 74.0128 206.537 75.0095 206.537C76.0148 206.537 76.8035 206.892 77.3755 207.603C77.9475 208.313 78.1988 209.184 78.1295 210.216H72.8385C72.8558 210.805 73.0725 211.299 73.4885 211.698C73.9045 212.088 74.4071 212.283 74.9965 212.283C75.8805 212.283 76.5088 211.919 76.8815 211.191H78.0255C77.8608 211.797 77.5098 212.3 76.9725 212.699C76.4351 213.097 75.7721 213.297 74.9835 213.297ZM76.2575 207.993C75.9021 207.681 75.4731 207.525 74.9705 207.525C74.4678 207.525 74.0171 207.676 73.6185 207.98C73.2285 208.283 72.9858 208.734 72.8905 209.332H76.9465C76.8425 208.742 76.6128 208.296 76.2575 207.993ZM82.6288 213.297C81.6494 213.297 80.8391 212.972 80.1978 212.322C79.5564 211.663 79.2358 210.861 79.2358 209.917C79.2358 208.972 79.5564 208.175 80.1978 207.525C80.8391 206.866 81.6494 206.537 82.6288 206.537C83.4348 206.537 84.1324 206.762 84.7218 207.213C85.3111 207.655 85.7054 208.235 85.9048 208.955H84.7088C84.5528 208.53 84.2928 208.192 83.9288 207.941C83.5648 207.689 83.1314 207.564 82.6288 207.564C81.9614 207.564 81.4154 207.789 80.9908 208.24C80.5748 208.69 80.3668 209.249 80.3668 209.917C80.3668 210.584 80.5748 211.143 80.9908 211.594C81.4154 212.044 81.9614 212.27 82.6288 212.27C83.1314 212.27 83.5648 212.144 83.9288 211.893C84.2928 211.641 84.5528 211.303 84.7088 210.879H85.9048C85.7141 211.598 85.3241 212.183 84.7348 212.634C84.1454 213.076 83.4434 213.297 82.6288 213.297ZM88.5034 213.167H87.3854V203.417H88.5034V207.668C88.9454 206.914 89.6344 206.537 90.5704 206.537C91.307 206.537 91.9007 206.775 92.3514 207.252C92.802 207.728 93.0274 208.365 93.0274 209.163V213.167H91.9224V209.332C91.9224 208.786 91.7837 208.357 91.5064 208.045C91.229 207.724 90.8564 207.564 90.3884 207.564C89.851 207.564 89.4004 207.776 89.0364 208.201C88.681 208.625 88.5034 209.206 88.5034 209.943V213.167ZM185.27 212.088V213.167H179.29V212.725C179.29 212.404 179.337 212.101 179.433 211.815C179.537 211.52 179.649 211.273 179.771 211.074C179.892 210.874 180.083 210.653 180.343 210.411C180.603 210.159 180.806 209.977 180.954 209.865C181.101 209.743 181.348 209.561 181.695 209.319C182.041 209.067 182.271 208.903 182.384 208.825C182.999 208.374 183.424 207.997 183.658 207.694C183.9 207.382 184.022 206.974 184.022 206.472C184.022 205.986 183.866 205.601 183.554 205.315C183.242 205.02 182.834 204.873 182.332 204.873C181.803 204.873 181.352 205.033 180.98 205.354C180.607 205.674 180.421 206.121 180.421 206.693H179.277C179.277 205.826 179.563 205.124 180.135 204.587C180.715 204.049 181.443 203.781 182.319 203.781C183.133 203.781 183.809 204.015 184.347 204.483C184.893 204.951 185.166 205.618 185.166 206.485C185.166 207.143 185.005 207.707 184.685 208.175C184.364 208.634 183.814 209.145 183.034 209.709C182.886 209.813 182.678 209.96 182.41 210.151C182.141 210.333 181.933 210.48 181.786 210.593C181.638 210.705 181.474 210.844 181.292 211.009C181.118 211.165 180.98 211.334 180.876 211.516C180.78 211.689 180.711 211.88 180.668 212.088H185.27ZM189.464 213.297C188.632 213.297 187.912 213.037 187.306 212.517C186.699 211.997 186.387 211.381 186.37 210.671H187.514C187.618 211.121 187.847 211.49 188.203 211.776C188.558 212.062 188.978 212.205 189.464 212.205C190.027 212.205 190.499 212.014 190.881 211.633C191.262 211.251 191.453 210.783 191.453 210.229C191.453 209.665 191.271 209.193 190.907 208.812C190.543 208.43 190.079 208.24 189.516 208.24C188.744 208.24 188.164 208.552 187.774 209.176L186.708 208.864L187.657 203.937H191.973V205.029H188.554L188.047 207.668C188.497 207.347 189.035 207.187 189.659 207.187C190.517 207.187 191.219 207.49 191.765 208.097C192.319 208.695 192.597 209.453 192.597 210.372C192.597 211.186 192.298 211.88 191.7 212.452C191.102 213.015 190.356 213.297 189.464 213.297ZM197.234 213.167H196.025L201.875 203.937H203.084L197.234 213.167ZM203.019 213.271C202.308 213.271 201.701 213.019 201.199 212.517C200.705 212.014 200.458 211.412 200.458 210.71C200.458 209.999 200.705 209.397 201.199 208.903C201.701 208.4 202.308 208.149 203.019 208.149C203.721 208.149 204.323 208.4 204.826 208.903C205.328 209.397 205.58 209.999 205.58 210.71C205.58 211.412 205.328 212.014 204.826 212.517C204.323 213.019 203.721 213.271 203.019 213.271ZM203.019 212.257C203.435 212.257 203.794 212.105 204.098 211.802C204.401 211.49 204.553 211.126 204.553 210.71C204.553 210.294 204.401 209.934 204.098 209.631C203.794 209.319 203.435 209.163 203.019 209.163C202.585 209.163 202.221 209.314 201.927 209.618C201.632 209.921 201.485 210.285 201.485 210.71C201.485 211.134 201.632 211.498 201.927 211.802C202.221 212.105 202.585 212.257 203.019 212.257ZM196.09 208.955C195.379 208.955 194.772 208.703 194.27 208.201C193.776 207.698 193.529 207.096 193.529 206.394C193.529 205.683 193.776 205.081 194.27 204.587C194.772 204.084 195.379 203.833 196.09 203.833C196.792 203.833 197.394 204.084 197.897 204.587C198.399 205.081 198.651 205.683 198.651 206.394C198.651 207.096 198.399 207.698 197.897 208.201C197.394 208.703 196.792 208.955 196.09 208.955ZM196.09 207.941C196.506 207.941 196.865 207.789 197.169 207.486C197.472 207.174 197.624 206.81 197.624 206.394C197.624 205.978 197.472 205.618 197.169 205.315C196.865 205.003 196.506 204.847 196.09 204.847C195.656 204.847 195.292 204.998 194.998 205.302C194.703 205.605 194.556 205.969 194.556 206.394C194.556 206.818 194.703 207.182 194.998 207.486C195.292 207.789 195.656 207.941 196.09 207.941Z" fill="#16054E"/>
<rect x="26" y="230.5" width="8.66667" height="8.66667" rx="4.33333" fill="#F5A623"/>
<path d="M48.7153 239.323C47.3547 239.323 46.215 238.868 45.2963 237.958C44.3863 237.039 43.9313 235.904 43.9313 234.552C43.9313 233.2 44.3863 232.069 45.2963 231.159C46.215 230.24 47.3547 229.781 48.7153 229.781C49.7553 229.781 50.674 230.062 51.4713 230.626C52.2687 231.18 52.806 231.861 53.0833 232.667H51.7443C51.4843 232.147 51.0857 231.726 50.5483 231.406C50.011 231.085 49.4 230.925 48.7153 230.925C47.6927 230.925 46.839 231.276 46.1543 231.978C45.4783 232.671 45.1403 233.529 45.1403 234.552C45.1403 235.574 45.4783 236.437 46.1543 237.139C46.839 237.832 47.6927 238.179 48.7153 238.179C49.66 238.179 50.4357 237.884 51.0423 237.295C51.6577 236.705 52.0087 235.947 52.0953 235.02H48.6633V233.889H53.3433C53.4647 235.518 53.0747 236.831 52.1733 237.828C51.272 238.824 50.1193 239.323 48.7153 239.323ZM57.6776 239.297C56.7763 239.297 56.0179 238.967 55.4026 238.309C54.7959 237.65 54.4926 236.853 54.4926 235.917C54.4926 234.981 54.7959 234.183 55.4026 233.525C56.0179 232.866 56.7763 232.537 57.6776 232.537C58.1543 232.537 58.5963 232.645 59.0036 232.862C59.4196 233.07 59.7403 233.338 59.9656 233.668V232.667H61.0836V239.167H59.9656V238.166C59.7403 238.495 59.4196 238.768 59.0036 238.985C58.5963 239.193 58.1543 239.297 57.6776 239.297ZM57.8466 238.27C58.4879 238.27 59.0166 238.044 59.4326 237.594C59.8486 237.143 60.0566 236.584 60.0566 235.917C60.0566 235.249 59.8486 234.69 59.4326 234.24C59.0166 233.789 58.4879 233.564 57.8466 233.564C57.1966 233.564 56.6636 233.789 56.2476 234.24C55.8316 234.69 55.6236 235.249 55.6236 235.917C55.6236 236.584 55.8316 237.143 56.2476 237.594C56.6636 238.044 57.1966 238.27 57.8466 238.27ZM71.5601 239.167V235.345C71.5601 234.807 71.4474 234.378 71.2221 234.058C71.0054 233.728 70.6891 233.564 70.2731 233.564C69.7531 233.564 69.3284 233.767 68.9991 234.175C68.6784 234.582 68.5094 235.137 68.4921 235.839V239.167H67.3741V235.345C67.3741 234.799 67.2614 234.365 67.0361 234.045C66.8194 233.724 66.5074 233.564 66.1001 233.564C65.5628 233.564 65.1294 233.78 64.8001 234.214C64.4708 234.638 64.3061 235.215 64.3061 235.943V239.167H63.1881V232.667H64.3061V233.668C64.7221 232.914 65.3764 232.537 66.2691 232.537C67.2571 232.537 67.9244 233 68.2711 233.928C68.4444 233.503 68.7218 233.165 69.1031 232.914C69.4844 232.662 69.9178 232.537 70.4031 232.537C71.1051 232.537 71.6598 232.775 72.0671 233.252C72.4744 233.728 72.6781 234.37 72.6781 235.176V239.167H71.5601ZM77.459 239.297C76.5144 239.297 75.73 238.976 75.106 238.335C74.4907 237.693 74.183 236.887 74.183 235.917C74.183 234.937 74.482 234.131 75.08 233.499C75.6867 232.857 76.4884 232.537 77.485 232.537C78.4904 232.537 79.279 232.892 79.851 233.603C80.423 234.313 80.6744 235.184 80.605 236.216H75.314C75.3314 236.805 75.548 237.299 75.964 237.698C76.38 238.088 76.8827 238.283 77.472 238.283C78.356 238.283 78.9844 237.919 79.357 237.191H80.501C80.3364 237.797 79.9854 238.3 79.448 238.699C78.9107 239.097 78.2477 239.297 77.459 239.297ZM78.733 233.993C78.3777 233.681 77.9487 233.525 77.446 233.525C76.9434 233.525 76.4927 233.676 76.094 233.98C75.704 234.283 75.4614 234.734 75.366 235.332H79.422C79.318 234.742 79.0884 234.296 78.733 233.993Z" fill="#16054E"/>
<path d="M185.644 239.167V231.042H183.863L184.773 229.937H186.762V239.167H185.644ZM191.549 239.297C190.717 239.297 189.997 239.037 189.391 238.517C188.784 237.997 188.472 237.381 188.455 236.671H189.599C189.703 237.121 189.932 237.49 190.288 237.776C190.643 238.062 191.063 238.205 191.549 238.205C192.112 238.205 192.584 238.014 192.966 237.633C193.347 237.251 193.538 236.783 193.538 236.229C193.538 235.665 193.356 235.193 192.992 234.812C192.628 234.43 192.164 234.24 191.601 234.24C190.829 234.24 190.249 234.552 189.859 235.176L188.793 234.864L189.742 229.937H194.058V231.029H190.639L190.132 233.668C190.582 233.347 191.12 233.187 191.744 233.187C192.602 233.187 193.304 233.49 193.85 234.097C194.404 234.695 194.682 235.453 194.682 236.372C194.682 237.186 194.383 237.88 193.785 238.452C193.187 239.015 192.441 239.297 191.549 239.297ZM199.319 239.167H198.11L203.96 229.937H205.169L199.319 239.167ZM205.104 239.271C204.393 239.271 203.786 239.019 203.284 238.517C202.79 238.014 202.543 237.412 202.543 236.71C202.543 235.999 202.79 235.397 203.284 234.903C203.786 234.4 204.393 234.149 205.104 234.149C205.806 234.149 206.408 234.4 206.911 234.903C207.413 235.397 207.665 235.999 207.665 236.71C207.665 237.412 207.413 238.014 206.911 238.517C206.408 239.019 205.806 239.271 205.104 239.271ZM205.104 238.257C205.52 238.257 205.879 238.105 206.183 237.802C206.486 237.49 206.638 237.126 206.638 236.71C206.638 236.294 206.486 235.934 206.183 235.631C205.879 235.319 205.52 235.163 205.104 235.163C204.67 235.163 204.306 235.314 204.012 235.618C203.717 235.921 203.57 236.285 203.57 236.71C203.57 237.134 203.717 237.498 204.012 237.802C204.306 238.105 204.67 238.257 205.104 238.257ZM198.175 234.955C197.464 234.955 196.857 234.703 196.355 234.201C195.861 233.698 195.614 233.096 195.614 232.394C195.614 231.683 195.861 231.081 196.355 230.587C196.857 230.084 197.464 229.833 198.175 229.833C198.877 229.833 199.479 230.084 199.982 230.587C200.484 231.081 200.736 231.683 200.736 232.394C200.736 233.096 200.484 233.698 199.982 234.201C199.479 234.703 198.877 234.955 198.175 234.955ZM198.175 233.941C198.591 233.941 198.95 233.789 199.254 233.486C199.557 233.174 199.709 232.81 199.709 232.394C199.709 231.978 199.557 231.618 199.254 231.315C198.95 231.003 198.591 230.847 198.175 230.847C197.741 230.847 197.377 230.998 197.083 231.302C196.788 231.605 196.641 231.969 196.641 232.394C196.641 232.818 196.788 233.182 197.083 233.486C197.377 233.789 197.741 233.941 198.175 233.941Z" fill="#16054E"/>
</svg>
