<svg width="132" height="148" viewBox="0 0 132 148" fill="none" xmlns="http://www.w3.org/2000/svg">
<path d="M43.5213 0.75769C37.8407 0.75769 33.2676 5.33086 33.2676 11.0114C33.2676 21.3192 26.3635 27.481 11.0023 27.481C5.32168 27.481 0.748505 32.0541 0.748505 37.7347V60.6689C0.748505 116.186 54.7976 147.24 65.9989 147.24C78.1743 147.24 131.249 116.186 131.249 60.6689V37.7347C131.249 32.0541 126.676 27.481 120.996 27.481C105.634 27.481 98.7302 21.3192 98.7302 11.0114C98.7302 5.33086 94.157 0.75769 88.4765 0.75769H43.5213Z" fill="#BEABFA"/>
<path opacity="0.5" d="M54.5861 23.576C50.2207 23.576 46.7064 27.0904 46.7064 31.4557C46.7064 39.3769 41.4008 44.1121 29.5962 44.1121C25.2308 44.1121 21.7165 47.6264 21.7165 51.9917V69.616C21.7165 112.279 63.2515 136.143 71.8594 136.143C81.2158 136.143 122.002 112.279 122.002 69.616V51.9917C122.002 47.6264 118.488 44.1121 114.123 44.1121C102.318 44.1121 97.0124 39.3769 97.0124 31.4557C97.0124 27.0904 93.4981 23.576 89.1327 23.576H54.5861Z" fill="#9070F6"/>
<path d="M48.7263 17.7167C44.361 17.7167 40.8467 21.231 40.8467 25.5964C40.8467 33.5175 35.5411 38.2527 23.7365 38.2527C19.3711 38.2527 15.8568 41.767 15.8568 46.1324V63.7566C15.8568 106.419 57.3918 130.284 65.9997 130.284C75.3561 130.284 116.143 106.419 116.143 63.7566V46.1324C116.143 41.767 112.628 38.2527 108.263 38.2527C96.4582 38.2527 91.1527 33.5175 91.1527 25.5964C91.1527 21.231 87.6383 17.7167 83.273 17.7167H48.7263Z" fill="#A389F7"/>
<path d="M73.6168 54.6892C67.0047 54.6892 60.6634 57.3159 55.9879 61.9914C51.3124 66.6668 48.6857 73.0081 48.6857 79.6203C48.6857 86.2324 51.3124 92.5737 55.9879 97.2492C60.6634 101.925 67.0047 104.551 73.6168 104.551C80.229 104.551 86.5703 101.925 91.2457 97.2492C95.9212 92.5737 98.5479 86.2324 98.5479 79.6203C98.5479 73.0081 95.9212 66.6668 91.2457 61.9914C86.5703 57.3159 80.229 54.6892 73.6168 54.6892Z" fill="#744FF3"/>
<path d="M66 43.7085C58.4958 43.7085 51.299 46.6895 45.9927 51.9958C40.6864 57.3021 37.7054 64.499 37.7054 72.0032C37.7054 79.5074 40.6864 86.7043 45.9927 92.0106C51.299 97.3168 58.4958 100.298 66 100.298C73.5043 100.298 80.7011 97.3168 86.0074 92.0106C91.3137 86.7043 94.2947 79.5074 94.2947 72.0032C94.2947 64.499 91.3137 57.3021 86.0074 51.9958C80.7011 46.6895 73.5043 43.7085 66 43.7085Z" fill="#8D6CFA"/>
<path d="M74.2061 65.7421L67.4024 72.5458L65.7047 70.8482C62.8443 67.9871 58.2059 67.9871 55.3455 70.8482C52.4845 73.7086 52.4845 78.3469 55.3455 81.2073L62.2228 88.0845C65.0834 90.9452 69.7213 90.9452 72.5819 88.0845L84.5652 76.1013C87.4263 73.2409 87.4263 68.6025 84.5652 65.7421C80.9381 62.115 76.9907 62.9574 74.2061 65.7421Z" fill="#744FF3"/>
<path d="M70.2505 61.4209L63.4468 68.2246L61.7491 66.5269C58.8887 63.6658 54.2504 63.6658 51.39 66.5269C48.529 69.3873 48.529 74.0256 51.39 76.886L58.2672 83.7633C61.1278 86.6239 65.7658 86.6239 68.6264 83.7633L80.6097 71.78C83.4707 68.9196 83.4707 64.2813 80.6097 61.4209C76.9826 57.7937 73.0351 58.6361 70.2505 61.4209ZM65.7717 33.1787L65.7673 34.3509L68.09 34.4028L68.1355 33.2328L65.7717 33.1787ZM62.0735 33.3712L59.7292 33.6804L59.9044 34.8396L62.2076 34.5347L62.0735 33.3712ZM71.7017 33.5918L71.5157 34.7488L73.8016 35.1575L74.0287 34.007L71.7017 33.5918ZM56.2257 34.4179L53.9571 35.0797L54.3031 36.1978L56.5328 35.549L56.2257 34.4179ZM77.4976 34.9045L77.1343 36.0204L79.3294 36.7752L79.7316 35.6744L77.4976 34.9045ZM50.6028 36.347L48.4639 37.3548L48.983 38.4037L51.0829 37.4154L50.6028 36.347ZM83.0189 37.0953L82.4933 38.142L84.5479 39.2233L85.1101 38.1982L83.0189 37.0953ZM45.3497 39.1195L43.386 40.4344L44.0564 41.3968L45.9834 40.1035L45.3497 39.1195ZM88.1422 40.1057L87.4631 41.0594L89.3295 42.4414L90.041 41.5114L88.1422 40.1057ZM40.5767 42.6576L38.8379 44.258L39.6446 45.1058L41.3553 43.5335L40.5767 42.6576ZM92.7487 43.8601L91.9312 44.697L93.564 46.3493L94.4117 45.5405L92.7487 43.8601ZM36.3941 46.8813L34.9214 48.7282L35.8513 49.4419L37.2981 47.6253L36.3941 46.8813ZM96.7323 48.2697L95.7958 48.9726L97.1562 50.8541L98.1185 50.1837L96.7323 48.2697ZM32.9058 51.6889L31.7293 53.7391L32.7565 54.3036L33.9114 52.2901L32.9058 51.6889ZM99.9936 53.233L98.962 53.7888L100.026 55.8542L101.077 55.3351L99.9936 53.233ZM30.1916 56.9744L29.3395 59.1782L30.4403 59.5826L31.2773 57.4156L30.1916 56.9744ZM102.465 58.6397L101.36 59.0268L102.091 61.2327L103.209 60.8824L102.465 58.6397ZM28.3144 62.6146L27.8192 64.9265L28.9697 65.1493L29.4563 62.8807L28.3144 62.6146ZM104.07 64.3577L102.92 64.5762L103.309 66.8664L104.466 66.6869L104.07 64.3577ZM27.3304 68.4754L27.1942 70.8349L28.3642 70.8803L28.5004 68.5619L27.3304 68.4754ZM104.784 70.2575L103.614 70.2965L103.651 72.6191H104.823L104.784 70.2575ZM28.4139 74.3254L27.2461 74.4162L27.4667 76.7692L28.6302 76.6373L28.4139 74.3254ZM103.437 76.0577L103.121 78.3588L104.28 78.5361L104.6 76.194L103.437 76.0577ZM29.2055 80.0349L28.0636 80.3009L28.6388 82.5933L29.7699 82.2883L29.2055 80.0349ZM102.39 81.7196L101.719 83.9449L102.833 84.3039L103.517 82.0418L102.39 81.7196ZM30.8599 85.5561L29.7721 85.9908L30.6912 88.1686L31.7617 87.695L30.8599 85.5561ZM100.476 87.1586L99.4788 89.2564L100.528 89.7776L101.544 87.6431L100.476 87.1586ZM33.3426 90.7551L32.3348 91.352L33.574 93.3633L34.5624 92.7318L33.3426 90.7551ZM97.7595 92.2387L96.449 94.1548L97.4049 94.8339L98.7371 92.8832L97.7595 92.2387ZM36.5866 95.5152L35.6848 96.2613L37.2203 98.0584L38.0961 97.282L36.5866 95.5152ZM94.2971 96.8452L92.7097 98.5407L93.5488 99.356L95.1643 97.6324L94.2971 96.8452ZM40.5226 99.728L39.7419 100.602L41.5304 102.146L42.2809 101.244L40.5226 99.728ZM90.1708 100.872L88.3476 102.308L89.057 103.242L90.9126 101.778L90.1708 100.872ZM45.0534 103.292L44.4111 104.274L46.4116 105.53L47.0193 104.529L45.0534 103.292ZM85.4843 104.226L83.4644 105.37L84.0245 106.4L86.0812 105.234L85.4843 104.226ZM50.0686 106.127L49.5863 107.196L51.7576 108.13L52.201 107.046L50.0686 106.127ZM80.348 106.828L78.1723 107.643L78.5616 108.746L80.7762 107.918L80.348 106.828ZM55.4601 108.16L55.1465 109.289L57.4368 109.877L57.7093 108.74L55.4601 108.16ZM74.8613 108.604L72.5905 109.082L72.8111 110.232L75.1252 109.745L74.8613 108.604ZM61.0982 109.341L60.9662 110.505L63.3192 110.732L63.41 109.564L61.0982 109.341ZM69.1735 109.521L66.853 109.648L66.9006 110.818L69.2579 110.688L69.1735 109.521Z" fill="#E7EDFB"/>
</svg>
