<svg width="64" height="64" viewBox="0 0 64 64" fill="none" xmlns="http://www.w3.org/2000/svg">
<rect width="64" height="64" rx="32" fill="#83DB83"/>
<path d="M38.3383 26.5979C37.7132 25.9153 36.7412 24.994 36.3277 27.0742C36.1871 27.7815 35.8586 28.3267 35.577 28.7657C35.2736 27.2298 34.3606 25.6401 33.5003 24.5683C33.1784 24.1673 32.0361 22.5731 31.8167 19.9062C31.784 19.5082 31.3112 19.3212 31.0154 19.5897C28.1894 22.1552 26.6382 25.6836 26.5806 29.6558C26.5806 29.6558 25.4038 28.6639 24.7645 26.8185C24.5923 26.3216 23.9261 26.2268 23.6371 26.6662C23.5816 26.7506 23.5301 26.835 23.4837 26.9171C21.3033 30.7725 20.2544 35.4544 21.2241 39.8103C22.8453 47.105 33.5699 49.1444 39.2476 44.5595C44.8026 40.0738 43.0368 31.7249 38.3383 26.5979Z" fill="#ED694A"/>
<path d="M22.7331 40.2688C21.7747 35.8664 22.7892 31.1389 24.9184 27.2231C24.8646 27.0932 24.8128 26.9588 24.7644 26.8191C24.5923 26.3222 23.926 26.2274 23.637 26.6668C23.5815 26.7511 23.5301 26.8356 23.4837 26.9177C21.3033 30.7731 20.2544 35.455 21.2241 39.8109C21.9636 43.1382 24.5972 45.3714 27.7818 46.3821C25.2975 45.1786 23.3519 43.1156 22.7331 40.2688Z" fill="#D8553A"/>
<path d="M28.0966 29.5833C28.2144 25.9782 29.5183 22.7456 31.8521 20.2623C31.836 20.1255 31.8241 20.0033 31.8164 19.9105C31.783 19.509 31.3275 19.3077 31.0331 19.5738C28.3035 22.0417 26.6398 25.5344 26.5801 29.6563L27.091 30.053C27.3426 30.2485 27.6834 30.24 27.9237 30.061C28.0671 29.9394 28.0877 29.756 28.0966 29.5833Z" fill="#D8553A"/>
<path d="M36.6236 31.9305C36.1619 31.4263 35.4439 30.7458 35.1385 32.2823C35.0347 32.8047 34.792 33.2075 34.5841 33.5317C34.36 32.3973 33.6856 31.2231 33.0502 30.4314C32.8124 30.1352 31.9688 28.9578 31.8067 26.9878C31.7825 26.6938 31.4333 26.5558 31.2149 26.7541C29.1275 28.6489 27.9817 31.2552 27.9392 34.1891C27.9392 34.1891 27.07 33.4564 26.5978 32.0934C26.4707 31.7264 25.9786 31.6564 25.7651 31.9809C25.7242 32.0432 25.6861 32.1057 25.6518 32.1663C24.0413 35.014 23.2666 38.4721 23.9828 41.6895C25.1803 47.0775 33.1017 48.5839 37.2953 45.1973C41.3983 41.8842 40.094 35.7175 36.6236 31.9305Z" fill="#F4A32C"/>
<path d="M25.4764 42.1122C24.8423 38.9671 25.499 35.5924 26.8915 32.7823C26.7854 32.5745 26.6849 32.3448 26.5978 32.0936C26.4706 31.7265 25.9785 31.6564 25.7651 31.981C25.7241 32.0433 25.6861 32.1057 25.6518 32.1664C24.0413 35.0141 23.2666 38.4722 23.9827 41.6895C24.5397 44.1955 26.5513 45.8612 28.9655 46.586C27.2502 45.7258 25.8996 44.2145 25.4764 42.1122Z" fill="#E89528"/>
<path d="M35.0569 36.7985C34.7444 36.4572 34.2583 35.9965 34.0515 37.0367C33.9813 37.3903 33.8169 37.6629 33.6762 37.8824C33.5244 37.1144 33.068 36.3196 32.6378 35.7837C32.4769 35.5832 31.9058 34.7861 31.796 33.4526C31.7796 33.2536 31.5433 33.1601 31.3954 33.2944C29.9823 34.5771 29.2067 36.3414 29.178 38.3274C29.178 38.3274 28.5895 37.8314 28.2699 36.9088C28.1839 36.6604 27.8508 36.613 27.7063 36.8326C27.6785 36.8748 27.6528 36.9171 27.6296 36.9581C26.5394 38.8858 26.0149 41.2267 26.4997 43.4047C27.3103 47.0521 32.6727 48.0718 35.5115 45.7793C36.4836 44.9943 37.0863 43.8881 37.2086 42.6645C37.3931 40.8112 36.6798 38.5695 35.0569 36.7985Z" fill="#F4D44E"/>
<path d="M33.6028 41.3164C33.4286 41.1263 33.1579 40.8696 33.0427 41.4491C33.0035 41.6461 32.912 41.798 32.8335 41.9203C32.749 41.4924 32.4947 41.0496 32.2551 40.751C32.1654 40.6393 31.8472 40.1952 31.786 39.4523C31.7769 39.3414 31.6452 39.2894 31.5628 39.3641C30.7756 40.0788 30.3434 41.0617 30.3274 42.1682C30.3274 42.1682 29.9996 41.8919 29.8215 41.3778C29.7736 41.2394 29.588 41.2129 29.5075 41.3354C29.4921 41.3589 29.4778 41.3824 29.4649 41.4053C28.8575 42.4793 28.5653 43.7835 28.8354 44.9969C29.4505 47.7643 34.4924 47.6804 34.8016 44.5845C34.9043 43.552 34.5069 42.303 33.6028 41.3164Z" fill="#EAE9E8"/>
<path d="M30.01 45.547C29.7398 44.4616 30.0321 43.2949 30.6394 42.3342C30.6523 42.3138 30.6667 42.2927 30.6821 42.2717C30.7626 42.1622 30.9482 42.1858 30.9961 42.3096C31.1742 42.7694 31.502 43.0167 31.502 43.0167C31.5152 42.2034 31.8098 41.4651 32.3509 40.8729C32.2299 40.7054 31.8597 40.3013 31.7899 39.4533C31.7808 39.3424 31.6491 39.2904 31.5667 39.3651C30.7795 40.0798 30.3473 41.0627 30.3313 42.1692C30.3313 42.1692 30.0035 41.8928 29.8254 41.3788C29.7775 41.2404 29.5919 41.214 29.5114 41.3364C29.496 41.3599 29.4817 41.3835 29.4688 41.4063C28.8614 42.4803 28.5692 43.7845 28.8393 44.9979C29.0893 46.1226 30.1162 46.7986 31.2515 46.9617C30.6391 46.6609 30.1684 46.1847 30.01 45.547Z" fill="#F7E7A1"/>
<path d="M27.2676 20.987C28.5347 19.9564 28.5319 18.0283 27.2676 17C26.0006 18.0305 26.0033 19.9587 27.2676 20.987Z" fill="#D8553A"/>
<path d="M42.4559 29.2585C43.723 28.2279 43.7202 26.2997 42.4559 25.2715C41.8768 25.7425 41.1916 28.2302 42.4559 29.2585Z" fill="#D8553A"/>
<path d="M20.0144 30.0434C20.9276 29.3006 20.9256 27.9111 20.0144 27.1699C19.597 27.5094 19.1032 29.3023 20.0144 30.0434Z" fill="#D8553A"/>
<path d="M35.8287 23.8608C36.7418 23.118 36.7399 21.7285 35.8287 20.9873C34.9155 21.73 34.9175 23.1197 35.8287 23.8608Z" fill="#D8553A"/>
<path d="M29.1065 33.7179C29.3162 31.2422 30.2617 29.0409 31.8491 27.3627C31.833 27.2411 31.8195 27.1162 31.8089 26.9878C31.7847 26.6938 31.4356 26.5558 31.2171 26.7541C29.563 28.2556 28.5014 30.2042 28.1104 32.4082L28.1098 32.408C28.0808 32.5715 28.0448 32.8096 28.0221 32.9967C28.0221 32.9969 28.0222 32.997 28.0223 32.9972C27.9748 33.3876 27.9473 33.7851 27.9414 34.1891C27.9856 34.1977 28.9857 34.7118 29.1065 33.7179Z" fill="#E89528"/>
<path d="M27.9629 43.9224C27.532 41.8877 27.899 39.718 28.7516 37.838C28.5865 37.6064 28.4057 37.2953 28.2719 36.909C28.1858 36.6606 27.8528 36.6132 27.7082 36.8329C27.6805 36.875 27.6547 36.9173 27.6315 36.9583C26.5413 38.8861 26.0169 41.227 26.5017 43.405C26.8813 45.1131 28.2593 46.2449 29.9088 46.7301C28.9486 46.0927 28.2224 45.1493 27.9629 43.9224Z" fill="#E8C842"/>
<path d="M30.7352 37.4383C30.878 36.4173 31.2956 35.2924 31.953 34.3519C31.8814 34.0864 31.8251 33.7863 31.7976 33.4526C31.7812 33.2536 31.5448 33.1601 31.397 33.2944C30.5166 34.0937 29.8846 35.0803 29.5256 36.1906L29.5247 36.1903C29.4682 36.3648 29.3883 36.6537 29.3399 36.8819C29.3404 36.8817 29.3408 36.8817 29.3412 36.8816C29.242 37.347 29.1869 37.8301 29.1797 38.3273C29.9702 38.426 30.6242 38.2303 30.7352 37.4383Z" fill="#E8C842"/>
</svg>
