<svg width="64" height="64" viewBox="0 0 64 64" fill="none" xmlns="http://www.w3.org/2000/svg">
<rect width="64" height="64" rx="32" fill="#83DB83"/>
<path d="M45.9022 19.4532C42.2626 15.9651 36.3901 16.2523 32.9753 19.9608L32.4527 20.5284C32.2106 20.7913 31.7954 20.7913 31.5533 20.5284L31.0307 19.9608C27.616 16.2523 21.7434 15.965 18.1038 19.4532C14.5825 22.8279 14.3947 28.4159 17.7136 32.0204C18.1464 32.4903 29.8857 45.2399 30.4572 45.8605C31.2895 46.7643 32.7164 46.7643 33.5487 45.8604C34.143 45.2151 45.7022 32.6612 46.2922 32.0204C49.6114 28.4159 49.4235 22.828 45.9022 19.4532Z" fill="#F96989"/>
<path d="M33.8076 44.4501C33.8299 44.4743 33.8286 44.4729 33.8075 44.4499C33.236 43.8293 21.4966 31.0798 21.0639 30.6098C17.7449 27.0052 17.9326 21.4173 21.4541 18.0425C21.7925 17.7181 22.1504 17.4266 22.5237 17.1672C15.777 18.4775 12.9284 26.8268 17.7108 32.0207C18.1435 32.4906 29.8829 45.2402 30.4543 45.8607C31.2866 46.7646 32.7136 46.7646 33.5459 45.8607C33.6316 45.7677 33.9454 45.4269 34.4209 44.9103C34.1966 44.7994 33.9881 44.6461 33.8076 44.4501Z" fill="#ED5A81"/>
<path d="M29.8238 38.7511C26.9635 38.1394 24.72 35.8959 24.1083 33.0357C24.0707 32.8595 23.8181 32.8596 23.7804 33.0357C23.1687 35.896 20.9253 38.1394 18.065 38.7511C17.9878 38.7676 17.9324 38.836 17.9324 38.9151C17.9324 38.9942 17.9877 39.0624 18.065 39.079C20.9254 39.6907 23.1688 41.9342 23.7804 44.7944C23.797 44.8718 23.8653 44.9271 23.9444 44.9271C24.0235 44.9271 24.0918 44.8718 24.1084 44.7944C24.7201 41.9341 26.9636 39.6907 29.8239 39.079C29.9999 39.0414 29.9998 38.7887 29.8238 38.7511Z" fill="#F4A32C"/>
<path d="M20.9615 37.4331C20.1176 38.065 19.1344 38.522 18.065 38.7507C17.9878 38.7672 17.9324 38.8355 17.9324 38.9146C17.9324 38.9937 17.9877 39.062 18.065 39.0785C20.9254 39.6903 23.1688 41.9337 23.7804 44.794C23.797 44.8713 23.8653 44.9266 23.9444 44.9266C24.0235 44.9266 24.0918 44.8713 24.1084 44.794C24.333 43.744 24.7781 42.7776 25.3923 41.9441C24.6601 39.8581 23.0303 38.2008 20.9615 37.4331Z" fill="#E89528"/>
<path d="M42.0844 26.646C40.6923 26.124 39.5945 25.0262 39.0725 23.6342C39.048 23.5687 38.9854 23.5254 38.9155 23.5254C38.8456 23.5254 38.783 23.5687 38.7585 23.6342C38.2365 25.0262 37.1388 26.124 35.7467 26.646C35.602 26.7004 35.6021 26.9057 35.7467 26.9599C37.1388 27.4819 38.2366 28.5796 38.7585 29.9717C38.8128 30.1163 39.0183 30.1163 39.0724 29.9717C39.5945 28.5796 40.6922 27.4818 42.0842 26.9599C42.1497 26.9353 42.193 26.8728 42.193 26.8029C42.193 26.733 42.1498 26.6705 42.0844 26.646Z" fill="#F4D44E"/>
<path d="M37.4056 25.6333C36.928 26.0678 36.3681 26.4139 35.7496 26.6458C35.6049 26.7001 35.6049 26.9054 35.7496 26.9597C37.1417 27.4816 38.2395 28.5794 38.7614 29.9714C38.8157 30.1161 39.0211 30.1161 39.0753 29.9714C39.3071 29.3532 39.6529 28.7936 40.0872 28.316C39.5678 27.1129 38.6088 26.1534 37.4056 25.6333Z" fill="#E8C842"/>
<path d="M25.2986 28.2144C25.0927 28.4265 25.113 28.7407 25.2986 28.9259C25.6473 29.2747 26.2473 28.9595 26.1476 28.4719C26.0774 28.0964 25.6003 27.9211 25.2986 28.2144Z" fill="#F4D44E"/>
<path d="M29.7433 31.1518H29.1733V30.5818C29.1733 30.304 28.9481 30.0789 28.6703 30.0789C28.3925 30.0789 28.1673 30.304 28.1673 30.5818V31.1518H27.5973C27.3195 31.1518 27.0943 31.377 27.0943 31.6548C27.0943 31.9326 27.3195 32.1578 27.5973 32.1578H28.1673V32.7278C28.1673 33.0056 28.3925 33.2308 28.6703 33.2308C28.9481 33.2308 29.1733 33.0056 29.1733 32.7278V32.1578H29.7433C30.0211 32.1578 30.2462 31.9326 30.2462 31.6548C30.2462 31.377 30.0211 31.1518 29.7433 31.1518Z" fill="#F4D44E"/>
</svg>
