<svg width="108" height="32" viewBox="0 0 108 32" fill="none" xmlns="http://www.w3.org/2000/svg">
<path d="M7.53276 18.3578C6.66827 19.1811 6.09204 20.3747 6.09204 21.8565C6.09204 23.215 6.66827 24.4086 7.53276 25.2319C8.43836 26.0962 9.59091 26.5078 10.6199 26.5078C11.7313 26.5078 13.0485 26.0552 13.9953 25.1495C14.695 24.4908 15.3537 23.3796 15.3537 21.8565C15.3537 20.2923 14.7362 19.2221 14.0365 18.4812C13.0897 17.4933 11.9783 17.1229 10.7024 17.1229C9.50849 17.1229 8.47956 17.4521 7.53276 18.3578ZM20.9106 30.9946H14.9832V28.7718C14.0776 30.0892 12.431 31.612 9.17932 31.612C6.46252 31.612 4.48669 30.7476 2.88143 29.1013C0.987818 27.2077 0 24.5733 0 21.733C0 18.6871 1.11134 16.176 2.88143 14.4885C4.48669 12.9654 6.75068 12.0187 9.26164 12.0187C11.2786 12.0187 13.5014 12.6773 14.9832 14.6943V4.34619H20.9106V30.9946Z" fill="#8D6CFA"/>
<path d="M32.2294 18.828C31.6119 19.4455 30.871 20.5158 30.871 22.1623C30.871 23.8088 31.5707 24.8789 32.1058 25.4552C32.9291 26.3196 34.2051 26.8959 35.6046 26.8959C36.7985 26.8959 37.9098 26.402 38.6919 25.6199C39.474 24.8789 40.1326 23.7264 40.1326 22.1623C40.1326 20.845 39.6387 19.6101 38.7742 18.7868C37.8686 17.9225 36.5514 17.511 35.4812 17.511C34.2051 17.511 33.0114 18.046 32.2294 18.828ZM39.762 13.0242H45.6895V31.3826H39.762V29.1598C38.1568 31.6297 35.8517 32 34.3286 32C31.6943 32 29.4715 31.3414 27.4545 29.201C25.5198 27.1429 24.7789 24.7556 24.7789 22.3269C24.7789 19.2396 25.9315 16.6053 27.6192 14.9176C29.2244 13.3122 31.4472 12.4067 33.9993 12.4067C35.5635 12.4067 38.0745 12.7772 39.762 15.0823V13.0242Z" fill="#8D6CFA"/>
<path d="M57.3405 18.4812C56.6408 19.2221 56.0234 20.2923 56.0234 21.8565C56.0234 23.3796 56.6819 24.4909 57.3817 25.1496C58.3285 26.0552 59.6456 26.5079 60.757 26.5079C61.7861 26.5079 62.9387 26.0962 63.8443 25.2319C64.7087 24.4087 65.2849 23.215 65.2849 21.8565C65.2849 20.3747 64.7087 19.1811 63.8443 18.3578C62.8975 17.4521 61.8684 17.1229 60.6747 17.1229C59.3986 17.1229 58.2873 17.4933 57.3405 18.4812ZM56.3937 4.37745V14.6943C57.8756 12.6773 60.0984 12.0187 62.1154 12.0187C64.6263 12.0187 66.8902 12.9654 68.4956 14.4885C70.2656 16.176 71.3769 18.6871 71.3769 21.7331C71.3769 24.5734 70.3891 27.2077 68.4956 29.1013C66.8902 30.7476 64.9144 31.6121 62.1977 31.6121C58.9459 31.6121 57.2993 30.0892 56.3937 28.7719V30.9946H50.4664V4.34619C52.4422 4.35664 54.418 4.36699 56.3937 4.37745Z" fill="#8D6CFA"/>
<path d="M81.6224 18.4321C81.005 19.0495 80.264 20.1198 80.264 21.7663C80.264 23.4129 80.9638 24.4829 81.4989 25.0592C82.3222 25.9236 83.5982 26.4999 84.9978 26.4999C86.1915 26.4999 87.3028 26.006 88.0848 25.224C88.8671 24.4829 89.5255 23.3304 89.5255 21.7663C89.5255 20.449 89.0317 19.2141 88.1672 18.3908C87.2615 17.5266 85.9445 17.115 84.8741 17.115C83.5982 17.115 82.4045 17.65 81.6224 18.4321ZM89.1551 12.6282H95.0826V30.9866H89.1551V28.7638C87.5498 31.2337 85.2446 31.6041 83.7217 31.6041C81.0873 31.6041 78.8645 30.9454 76.8476 28.805C74.9128 26.7469 74.1719 24.3596 74.1719 21.9309C74.1719 18.8436 75.3245 16.2093 77.0121 14.5216C78.6175 12.9162 80.8402 12.0107 83.3924 12.0107C84.9565 12.0107 87.4674 12.3812 89.1551 14.6863V12.6282Z" fill="#8D6CFA"/>
<path d="M99.0723 0L104.072 0V4.07221H99.0723V0Z" fill="#A08FF9" stroke="#8D6CFA" stroke-width="0.000285874" stroke-miterlimit="2" stroke-linejoin="round"/>
<path fill-rule="evenodd" clip-rule="evenodd" d="M96.2695 10.0755C96.2695 9.34097 96.8665 8.74463 97.6007 8.74463C98.3349 8.74463 98.9319 9.34097 98.9319 10.0755C98.9319 10.81 98.3349 11.4064 97.6007 11.4064C96.8665 11.4064 96.2695 10.81 96.2695 10.0755Z" fill="#BBB5F7" stroke="#C799FF" stroke-width="0.000285874" stroke-miterlimit="2" stroke-linejoin="round"/>
<path d="M103.709 0L107.781 0V4.07221H103.709V0Z" fill="#8D6CFA" stroke="#8D6CFA" stroke-width="0.000285874" stroke-miterlimit="2" stroke-linejoin="round"/>
<path d="M103.709 4.08203H107.782V8.15424H103.709V4.08203Z" fill="#A08FF9" stroke="#BBB5F7" stroke-width="0.000285874" stroke-miterlimit="2" stroke-linejoin="round"/>
<path fill-rule="evenodd" clip-rule="evenodd" d="M95.5645 2.03616C95.5645 0.912321 96.4768 0 97.601 0L99.6366 0V4.07221H97.601C96.4768 4.07221 95.5645 3.15989 95.5645 2.03616Z" fill="#BBB5F7" stroke="#C799FF" stroke-width="0.000285874" stroke-miterlimit="2" stroke-linejoin="round"/>
<path fill-rule="evenodd" clip-rule="evenodd" d="M99.64 4.08203H103.712V8.15424H101.066C100.279 8.15424 99.64 7.51562 99.64 6.72896V4.08203Z" fill="#BBB5F7" stroke="#C799FF" stroke-width="0.000285874" stroke-miterlimit="2" stroke-linejoin="round"/>
<path fill-rule="evenodd" clip-rule="evenodd" d="M103.709 8.13867H107.782V10.1747C107.782 11.2986 106.869 12.2109 105.746 12.2109C104.622 12.2109 103.709 11.2986 103.709 10.1747V8.13867Z" fill="#BBB5F7" stroke="#C799FF" stroke-width="0.000285874" stroke-miterlimit="2" stroke-linejoin="round"/>
</svg>
