<svg width="150" height="150" viewBox="0 0 150 150" fill="none" xmlns="http://www.w3.org/2000/svg">
<path d="M127.042 30.0713C131.36 34.9473 130.199 42.2905 124.983 45.6939C123.321 46.7784 121.5 47.3256 119.67 47.367L130.272 63.617C133.117 67.9776 131.889 73.8189 127.528 76.664L72.2636 112.721L56.5246 88.5982C58.3401 88.5344 60.183 87.9725 61.8227 86.9026C66.8988 83.5908 68.1094 76.5646 64.1967 71.693C61.4016 68.2129 56.4729 66.8916 52.3392 68.5758C49.7846 69.6166 47.8727 71.5023 46.8086 73.7066L36.4315 57.8018C33.4621 53.2506 34.7443 47.154 39.2955 44.1846L55.2004 33.8075C53.0049 32.7608 51.201 30.9625 50.1244 28.483C48.5551 24.8689 49.2612 20.4968 51.9138 17.5833C56.7136 12.3113 64.744 13.2446 68.3739 18.808C69.4436 20.4476 69.9909 22.268 70.047 24.1208L86.7215 13.2415C90.86 10.5414 96.4038 11.7074 99.104 15.8459L109.983 32.5204C110.814 30.743 112.172 29.2101 114.019 28.1042C118.195 25.6037 123.816 26.4271 127.042 30.0713Z" fill="#A389F7"/>
<path d="M130.272 63.6169L119.67 47.367C121.5 47.3255 123.321 46.7782 124.983 45.6939C130.199 42.2905 131.36 34.9473 127.043 30.0712C123.816 26.4277 118.198 25.6035 114.022 28.1023C112.174 29.2083 110.815 30.742 109.984 32.5203L99.1042 15.8458C98.3656 14.7139 97.403 13.8275 96.326 13.1587V28.1209C96.326 48.9571 79.435 65.8481 58.5988 65.8481H41.6817L46.8088 73.7065C47.8728 71.5021 49.7847 69.6166 52.3394 68.5758C56.4726 66.8917 61.4007 68.2123 64.1959 71.6917C68.1096 76.5634 66.8993 83.5905 61.8229 86.9026C60.1832 87.9724 58.3403 88.5342 56.5247 88.5982L72.2638 112.721L127.528 76.6639C131.889 73.8188 133.117 67.9775 130.272 63.6169Z" fill="#8D6CFA"/>
<path d="M62.1651 89.4211C63.9806 89.3573 65.8235 88.7954 67.4632 87.7255C72.5394 84.4136 73.75 77.387 69.837 72.5153C67.5748 69.6992 63.9184 68.3299 60.4139 68.7901C61.8632 69.4439 63.1744 70.42 64.1964 71.6923C68.1094 76.564 66.8989 83.5906 61.8227 86.9025C60.183 87.9724 58.3401 88.5343 56.5245 88.5981L72.2636 112.721L75.8433 110.386L62.1651 89.4211Z" fill="#F9D78D"/>
<path d="M79.4217 40.2805C83.5615 46.6255 84.1182 62.2361 79.5286 65.2306C74.9391 68.2251 67.8625 65.5089 63.7227 59.1639C59.5829 52.8189 59.9475 45.2477 64.5371 42.2533C69.1267 39.2588 75.2819 33.9355 79.4217 40.2805Z" fill="#8D6CFA"/>
<path d="M109.356 99.0128C110.284 105.459 105.278 110.956 99.0499 110.933C97.0653 110.926 95.2437 110.383 93.6918 109.411L93.6126 130.708C93.5971 134.868 90.2115 138.229 86.0507 138.213L24.4408 137.984C20.9779 137.971 18.181 135.154 18.1939 131.691L18.2777 109.158C19.8295 110.102 21.678 110.645 23.6359 110.653C29.6969 110.675 34.5696 105.47 33.9776 99.2497C33.5547 94.8063 30.1631 90.994 25.7841 90.1296C23.0779 89.5953 20.4443 90.12 18.3438 91.377L18.4277 68.8191C18.4405 65.3551 21.2591 62.5574 24.7231 62.5703L47.281 62.6541C46.0221 60.5734 45.5032 58.0801 45.966 55.4172C46.6407 51.535 49.6335 48.2698 53.451 47.2933C60.3582 45.5263 66.5546 50.7191 66.5299 57.3619C66.5226 59.3196 65.9794 61.1413 65.0081 62.72L86.6011 62.8003C90.6128 62.8153 93.8529 66.0795 93.838 70.0912L93.7577 91.6842C95.4286 90.6557 97.4057 90.1212 99.5565 90.2123C104.42 90.4182 108.663 94.195 109.356 99.0128Z" fill="#F5A623"/>
<path d="M109.357 99.0116C108.664 94.1939 104.42 90.4177 99.557 90.2123C97.4066 90.1215 95.4299 90.656 93.7593 91.6844L93.8396 70.0912C93.8545 66.0796 90.6145 62.8154 86.6028 62.8005H86.6028C81.686 62.7822 77.6905 66.7629 77.6905 71.6797V80.4505C77.6905 101.632 60.5196 118.803 39.3382 118.803H31.1315C24.0059 118.803 18.222 124.565 18.1955 131.691V131.691C18.1827 135.154 20.9795 137.971 24.4424 137.984L86.0523 138.213C90.2131 138.229 93.5987 134.868 93.6142 130.708L93.6934 109.411C95.2453 110.383 97.0669 110.926 99.0516 110.933C105.28 110.956 110.286 105.459 109.357 99.0116Z" fill="#F2951A"/>
<path d="M63.9606 81.3729C63.9324 88.9489 55.8188 102.297 50.3388 102.277C44.8588 102.256 40.4392 96.0981 40.4673 88.5221C40.4955 80.9461 44.9608 74.821 50.4408 74.8414C55.9208 74.8617 63.9887 73.7968 63.9606 81.3729Z" fill="#F8C165"/>
<path d="M81.7968 134.208H65.9872C64.0216 134.208 62.4289 132.615 62.4289 130.649C62.4289 128.684 64.0216 127.091 65.9872 127.091H81.7968C83.7624 127.091 85.355 128.684 85.355 130.649C85.355 132.615 83.7624 134.208 81.7968 134.208Z" fill="#F8C165"/>
</svg>
