<svg width="64" height="64" viewBox="0 0 64 64" fill="none" xmlns="http://www.w3.org/2000/svg">
<rect width="64" height="64" rx="32" fill="#83DB83"/>
<path d="M32.003 46.9974C40.2863 46.9974 47.0012 40.2823 47.0012 31.9987C47.0012 23.7152 40.2863 17 32.003 17C23.7198 17 17.0049 23.7152 17.0049 31.9987C17.0049 40.2823 23.7198 46.9974 32.003 46.9974Z" fill="#F4D44E"/>
<path d="M27.1203 43.4765C17.6602 38.0145 17.0857 24.6392 25.8352 18.3264C23.0653 19.5727 20.6465 21.6687 19.0119 24.5001C14.8703 31.6738 17.3281 40.8468 24.5015 44.9885C29.7806 48.0365 36.1421 47.5099 40.7846 44.1603C36.5367 46.0717 31.4625 45.9835 27.1203 43.4765Z" fill="#E8C842"/>
<path d="M37.4346 29.1278V45.9566C37.9872 45.7412 38.5323 45.4898 39.0675 45.2037V29.3781C38.5667 29.1646 37.9928 29.0811 37.4346 29.1278Z" fill="#9CD7F2"/>
<path d="M26.5723 45.9518V29.1148C26.0092 29.0821 25.4352 29.1801 24.9395 29.4088V45.2036C25.4693 45.486 26.0147 45.7356 26.5723 45.9518Z" fill="#9CD7F2"/>
<path d="M26.5723 43.1416C25.9918 42.7739 25.4476 42.3752 24.9395 41.9495V45.2037C25.4694 45.4859 26.0147 45.7356 26.5723 45.9518V43.1416Z" fill="#71C5DB"/>
<path d="M33.9198 35.7615H30.0768C30.0187 36.0725 30.0533 36.1414 30.043 37.8175C31.4055 37.8995 31.6714 38.4922 32.5558 38.1336C32.9917 37.9569 33.4618 37.8472 33.9536 37.8176C33.9431 36.1263 33.9778 36.072 33.9198 35.7615Z" fill="#656566"/>
<path d="M31.5755 38.1711C31.5729 38.1303 31.5712 38.0892 31.5712 38.0478V37.6965C31.5714 37.6965 31.5717 37.6966 31.5718 37.6966C31.5798 36.1386 31.5483 36.0648 31.6049 35.7615H30.0768C30.0187 36.0725 30.0533 36.1414 30.043 37.8175C30.7886 37.8624 31.2057 38.0599 31.5755 38.1711Z" fill="#4F4F51"/>
<path d="M27.9702 30.0647C27.0783 29.3944 25.5712 29.3944 24.6792 30.0647C24.4789 30.2153 24.1946 30.1748 24.0441 29.9746C23.8936 29.7743 23.934 29.49 24.1342 29.3395C25.342 28.4318 27.3074 28.4318 28.5152 29.3395C28.7155 29.49 28.7558 29.7743 28.6053 29.9746C28.4551 30.1745 28.1708 30.2155 27.9702 30.0647Z" fill="#656566"/>
<path d="M40.3999 27.971C39.6262 27.231 38.6506 26.835 37.6516 26.8551C37.4014 26.8611 37.194 26.6613 37.1889 26.4108C37.1838 26.1604 37.3827 25.9532 37.6332 25.9481C38.8741 25.921 40.0786 26.4083 41.0269 27.3154C41.208 27.4885 41.2144 27.7756 41.0412 27.9567C40.8681 28.1377 40.5811 28.1442 40.3999 27.971Z" fill="#656566"/>
<path d="M22.9656 27.9565C22.7925 27.7755 22.7989 27.4883 22.9799 27.3152C23.9283 26.4082 25.1339 25.923 26.3737 25.9479C26.6241 25.953 26.8231 26.1602 26.818 26.4107C26.8129 26.6611 26.606 26.8588 26.3552 26.8549C25.3576 26.836 24.3807 27.2309 23.6069 27.9708C23.4261 28.1438 23.1389 28.1377 22.9656 27.9565Z" fill="#656566"/>
<path d="M33.9526 38.0478V37.6966C33.4608 37.7262 32.9907 37.8359 32.5548 38.0127C31.6707 38.3712 31.4039 37.7786 30.042 37.6965V38.0478C30.042 39.1277 30.9174 40.0032 31.9973 40.0032C33.0771 40.0032 33.9526 39.1277 33.9526 38.0478Z" fill="#ED694A"/>
<path d="M31.5702 38.0489C31.2012 37.9375 30.7844 37.7413 30.042 37.6965V38.0478C30.042 39.1277 30.9174 40.0032 31.9973 40.0032C32.2684 40.0032 32.5266 39.9479 32.7613 39.8482C32.0616 39.5507 31.5706 38.8572 31.5702 38.0489Z" fill="#D8553A"/>
<path d="M30.0566 35.8829H33.9369C33.8186 34.9162 32.9954 34.1672 31.9967 34.1672C30.9981 34.1672 30.1749 34.9162 30.0566 35.8829Z" fill="#EAE9E8"/>
<path d="M31.6033 35.762H31.6039C31.7252 35.1119 32.1677 34.5749 32.7606 34.3226C32.5259 34.2228 32.2679 34.1672 31.9968 34.1672C30.9982 34.1672 30.1749 34.9162 30.0566 35.8829H31.5842C31.589 35.844 31.5953 35.8053 31.6033 35.762Z" fill="#DBDBDB"/>
<path d="M36.0367 30.0654C36.9286 29.3952 38.4356 29.3952 39.3276 30.0654C39.528 30.216 39.8123 30.1756 39.9627 29.9753C40.1133 29.775 40.0729 29.4907 39.8726 29.3402C38.6648 28.4325 36.6995 28.4325 35.4917 29.3402C35.2914 29.4907 35.2511 29.775 35.4015 29.9753C35.5517 30.1752 35.836 30.2162 36.0367 30.0654Z" fill="#656566"/>
<path d="M39.0626 44.8386C38.5264 45.0049 37.9812 45.1413 37.4297 45.2469V45.9825C37.9823 45.7671 38.5274 45.5157 39.0626 45.2295V44.8386Z" fill="#71C5DB"/>
</svg>
