<svg width="24" height="24" viewBox="0 0 24 24" fill="none" xmlns="http://www.w3.org/2000/svg">
<path d="M22 5.79826C21.2483 6.12435 20.4534 6.33992 19.64 6.43826C20.4982 5.92558 21.1413 5.11904 21.45 4.16826C20.6436 4.64832 19.7608 4.98655 18.84 5.16826C18.2245 4.50083 17.405 4.05655 16.5098 3.90511C15.6147 3.75366 14.6945 3.90361 13.8938 4.33145C13.093 4.75928 12.4569 5.44079 12.0852 6.26909C11.7135 7.0974 11.6273 8.02565 11.84 8.90826C10.2094 8.82578 8.61444 8.40121 7.15865 7.66212C5.70287 6.92303 4.41885 5.88595 3.39 4.61826C3.02914 5.24842 2.83952 5.96208 2.84 6.68826C2.83872 7.36264 3.00422 8.02687 3.32176 8.62182C3.63929 9.21677 4.09902 9.72397 4.66 10.0983C4.00798 10.0805 3.36989 9.90555 2.8 9.58826V9.63826C2.80489 10.5831 3.13599 11.4973 3.73731 12.2262C4.33864 12.9551 5.17326 13.4539 6.1 13.6383C5.74326 13.7468 5.37287 13.8041 5 13.8083C4.74189 13.8052 4.48442 13.7818 4.23 13.7383C4.49391 14.5511 5.00462 15.2614 5.69107 15.7704C6.37753 16.2794 7.20558 16.5618 8.06 16.5783C6.6172 17.7135 4.83588 18.3331 3 18.3383C2.66574 18.3394 2.33174 18.3193 2 18.2783C3.87443 19.4885 6.05881 20.131 8.29 20.1283C9.82969 20.1442 11.3571 19.8533 12.7831 19.2723C14.2091 18.6914 15.505 17.8321 16.5952 16.7448C17.6854 15.6574 18.548 14.3636 19.1326 12.9392C19.7172 11.5147 20.012 9.98798 20 8.44826C20 8.27826 20 8.09826 20 7.91826C20.7847 7.33307 21.4615 6.61568 22 5.79826Z" fill="white"/>
</svg>
